<?xml version="1.0" encoding="UTF-8" standalone="no"?>
<svg
   xmlns:dc="http://purl.org/dc/elements/1.1/"
   xmlns:cc="http://creativecommons.org/ns#"
   xmlns:rdf="http://www.w3.org/1999/02/22-rdf-syntax-ns#"
   xmlns:svg="http://www.w3.org/2000/svg"
   xmlns="http://www.w3.org/2000/svg"
   xmlns:sodipodi="http://sodipodi.sourceforge.net/DTD/sodipodi-0.dtd"
   xmlns:inkscape="http://www.inkscape.org/namespaces/inkscape"
   version="1.0"
   id="Layer_1"
   x="0px"
   y="0px"
   width="26.752px"
   height="26.752px"
   viewBox="0 0 26.752 26.752"
   enable-background="new 0 0 26.752 26.752"
   xml:space="preserve"
   sodipodi:docname="icon-no.svg"
   inkscape:version="0.92.2 (5c3e80d, 2017-08-06)"><metadata
     id="metadata9"><rdf:RDF><cc:Work
         rdf:about=""><dc:format>image/svg+xml</dc:format><dc:type
           rdf:resource="http://purl.org/dc/dcmitype/StillImage" /></cc:Work></rdf:RDF></metadata><defs
     id="defs7" /><sodipodi:namedview
     pagecolor="#ffffff"
     bordercolor="#666666"
     borderopacity="1"
     objecttolerance="10"
     gridtolerance="10"
     guidetolerance="10"
     inkscape:pageopacity="0"
     inkscape:pageshadow="2"
     inkscape:window-width="1920"
     inkscape:window-height="1017"
     id="namedview5"
     showgrid="false"
     inkscape:zoom="8.8217701"
     inkscape:cx="13.376"
     inkscape:cy="13.376"
     inkscape:window-x="-8"
     inkscape:window-y="-8"
     inkscape:window-maximized="1"
     inkscape:current-layer="Layer_1" /><path
     d="M15.497,13.376L26.312,2.562c0.586-0.585,0.586-1.535,0-2.121s-1.535-0.586-2.121,0L13.376,11.255L2.562,0.439 c-0.586-0.586-1.535-0.586-2.121,0c-0.586,0.585-0.586,1.535,0,2.121l10.814,10.815L0.439,24.19c-0.586,0.586-0.586,1.535,0,2.121 c0.293,0.293,0.677,0.439,1.061,0.439s0.768-0.146,1.061-0.439l10.815-10.814L24.19,26.312c0.293,0.293,0.677,0.439,1.061,0.439 s0.768-0.146,1.061-0.439c0.586-0.586,0.586-1.535,0-2.121L15.497,13.376z"
     id="path2"
     style="fill:#f25b26;fill-opacity:1" /></svg>