<?xml version="1.0" encoding="UTF-8" standalone="no"?>
<svg
   xmlns:dc="http://purl.org/dc/elements/1.1/"
   xmlns:cc="http://creativecommons.org/ns#"
   xmlns:rdf="http://www.w3.org/1999/02/22-rdf-syntax-ns#"
   xmlns:svg="http://www.w3.org/2000/svg"
   xmlns="http://www.w3.org/2000/svg"
   xmlns:sodipodi="http://sodipodi.sourceforge.net/DTD/sodipodi-0.dtd"
   xmlns:inkscape="http://www.inkscape.org/namespaces/inkscape"
   version="1.1"
   id="Layer_1"
   x="0px"
   y="0px"
   width="78.672px"
   height="63.789px"
   viewBox="0 0 78.672 63.789"
   enable-background="new 0 0 78.672 63.789"
   xml:space="preserve"
   sodipodi:docname="icon-quotes.svg"
   inkscape:version="0.92.2 (5c3e80d, 2017-08-06)"><metadata
     id="metadata15"><rdf:RDF><cc:Work
         rdf:about=""><dc:format>image/svg+xml</dc:format><dc:type
           rdf:resource="http://purl.org/dc/dcmitype/StillImage" /></cc:Work></rdf:RDF></metadata><defs
     id="defs13" /><sodipodi:namedview
     pagecolor="#ffffff"
     bordercolor="#666666"
     borderopacity="1"
     objecttolerance="10"
     gridtolerance="10"
     guidetolerance="10"
     inkscape:pageopacity="0"
     inkscape:pageshadow="2"
     inkscape:window-width="1920"
     inkscape:window-height="1017"
     id="namedview11"
     showgrid="false"
     inkscape:zoom="3.6996974"
     inkscape:cx="-4.5865121"
     inkscape:cy="31.894501"
     inkscape:window-x="-8"
     inkscape:window-y="-8"
     inkscape:window-maximized="1"
     inkscape:current-layer="Layer_1" /><g
     id="g4"
     style="fill:#efefef;fill-opacity:1"><path
       d="M34.967,7.063L30.713,0C28.272,1.495,0,12.207,0,39.617c0,7.231,0.336,24.172,18.9,24.172 c11.187,0,13.94-10.279,13.94-13.584c0-21.977-21.382-14.177-21.382-14.177C11.458,17.957,31.263,9.184,34.967,7.063z"
       id="path2"
       style="fill:#efefef;fill-opacity:1" /></g><g
     id="g8"
     style="fill:#efefef;fill-opacity:1"><path
       d="M78.672,7.063L74.418,0c-2.44,1.495-30.713,12.207-30.713,39.617c0,7.231,0.337,24.172,18.9,24.172 c11.187,0,13.939-10.279,13.939-13.584c0-21.977-21.381-14.177-21.381-14.177C55.165,17.957,74.969,9.184,78.672,7.063z"
       id="path6"
       style="fill:#efefef;fill-opacity:1" /></g></svg>